<?xml version="1.0" standalone="no"?>
<!DOCTYPE svg PUBLIC "-//W3C//DTD SVG 20010904//EN"
 "http://www.w3.org/TR/2001/REC-SVG-20010904/DTD/svg10.dtd">
<svg version="1.0" xmlns="http://www.w3.org/2000/svg"
 width="289.000000pt" height="289.000000pt" viewBox="0 0 289.000000 289.000000"
 preserveAspectRatio="xMidYMid meet">
<metadata>
Created by potrace 1.11, written by Peter Selinger 2001-2013
</metadata>
<g transform="translate(0.000000,289.000000) scale(0.100000,-0.100000)"
fill="#000000" stroke="none">
<path d="M1230 2795 c-476 -80 -868 -400 -1049 -857 -16 -40 -42 -122 -57
-183 -26 -102 -28 -124 -29 -300 0 -259 31 -399 136 -611 83 -170 202 -319
365 -458 136 -116 339 -216 551 -273 91 -24 114 -26 303 -27 158 0 222 4 279
17 360 83 668 290 861 579 100 149 153 269 198 447 24 97 27 123 27 301 0 215
-11 291 -67 455 -161 475 -580 830 -1070 910 -112 18 -342 18 -448 0z m420
-282 c50 -12 194 -73 261 -110 3 -2 13 14 21 37 21 51 50 65 106 51 77 -21 80
-36 32 -149 -21 -49 -22 -54 -6 -71 9 -10 31 -21 49 -24 18 -3 46 -9 63 -12
31 -7 32 -6 64 72 39 94 54 113 92 113 37 0 97 -25 104 -43 3 -8 -10 -53 -30
-101 -19 -47 -31 -88 -28 -90 4 -2 23 -6 43 -10 53 -9 65 -27 51 -75 -19 -60
-42 -75 -107 -67 l-56 6 -24 -55 c-29 -64 -29 -65 -12 -65 35 0 86 -23 92 -40
10 -31 -28 -106 -57 -113 -24 -6 -25 -12 -31 -94 -12 -172 -69 -326 -166 -454
l-50 -66 -590 -8 c-530 -6 -594 -6 -615 9 -32 21 -128 166 -159 241 -46 113
-61 191 -60 325 0 142 25 245 87 368 168 334 558 513 926 425z m516 -1627 c56
-34 64 -59 64 -205 l0 -131 -776 0 -776 0 4 140 3 140 33 32 c26 27 43 34 90
39 31 4 343 6 692 5 603 -1 637 -2 666 -20z"/>
</g>
</svg>
